<svg xmlns="http://www.w3.org/2000/svg" width="35" height="35" viewBox="0 0 35 35">
  <g id="Group_65" data-name="Group 65" transform="translate(-1303 -289)">
    <g id="Group_63" data-name="Group 63">
      <circle id="Ellipse_5" data-name="Ellipse 5" cx="17.5" cy="17.5" r="17.5" transform="translate(1303 289)" fill="#ff19a9"/>
    </g>
    <g id="_8y6ZiD" data-name="8y6ZiD" transform="translate(726.732 -139.278)">
      <g id="Group_19" data-name="Group 19" transform="translate(589.756 439.028)">
        <path id="Path_45" data-name="Path 45" d="M591.869,446.932h-1.74c-.274,0-.372-.1-.372-.374q0-1.061,0-2.122c0-.275.1-.378.384-.378h1.728v-.127c0-.532-.006-1.063.005-1.595a3.638,3.638,0,0,1,.478-1.8,2.925,2.925,0,0,1,1.731-1.348,3.786,3.786,0,0,1,1.12-.164h1.779a.307.307,0,0,1,.35.352q0,1,0,2.008c0,.242-.108.346-.352.349-.474.005-.949,0-1.423.022a.653.653,0,0,0-.62.343,1.038,1.038,0,0,0-.1.406c-.013.5-.007,1-.007,1.5a.3.3,0,0,0,.01.046h2.027c.277,0,.379.1.379.381q0,1.067,0,2.134c0,.261-.1.359-.361.359h-2.055v5.675c0,.034,0,.069,0,.1a.3.3,0,0,1-.329.316q-1.148,0-2.3,0a.3.3,0,0,1-.333-.333c0-.5,0-1,0-1.5v-4.259Z" transform="translate(-589.756 -439.028)"/>
      </g>
    </g>
  </g>
</svg>
