<svg xmlns="http://www.w3.org/2000/svg" xmlns:xlink="http://www.w3.org/1999/xlink" width="675" height="324" viewBox="0 0 675 324">
  <defs>
    <clipPath id="clip-path">
      <rect id="Rectangle_28" data-name="Rectangle 28" width="675" height="324" transform="translate(0 6475)" fill="#161615"/>
    </clipPath>
  </defs>
  <g id="Mask_Group_10" data-name="Mask Group 10" transform="translate(0 -6475)" clip-path="url(#clip-path)">
    <g id="Group_45" data-name="Group 45" transform="translate(487.168 6450.831)">
      <g id="Group_64" data-name="Group 64">
        <g id="Group_63" data-name="Group 63">
          <g id="Group_44" data-name="Group 44" transform="translate(34.332 24.169)">
            <path id="Path_69" data-name="Path 69" d="M154.029,159.205q1.418-.019,2.837-.088v79.541q-1.419.07-2.837.088-3.707.049-7.414-.266-1.419-.122-2.838-.3V158.638q1.419.179,2.838.3Q150.322,159.258,154.029,159.205Z" transform="translate(-84.759 -86.126)" fill="#161615"/>
            <path id="Path_70" data-name="Path 70" d="M246.72,132.847q1.419-.684,2.838-1.392v66.451c4.927-2.456,9.855-5.113,14.782-7.895q1.441-.814,2.883-1.641v13.089q-1.441.827-2.883,1.641a271.887,271.887,0,0,1-25.033,12.691q-1.419.616-2.838,1.205V137.456q1.419-.588,2.838-1.205Q243.013,134.639,246.72,132.847Z" transform="translate(-127.467 -73.601)" fill="#161615"/>
            <path id="Path_71" data-name="Path 71" d="M310.806,96.911q1.419-.856,2.837-1.714v79.541q-1.419.858-2.837,1.714-3.707,2.234-7.414,4.43-1.419.838-2.838,1.668V103.009q1.419-.829,2.838-1.668Q307.1,99.151,310.806,96.911Z" transform="translate(-156.994 -56.895)" fill="#161615"/>
            <path id="Path_72" data-name="Path 72" d="M347.561,63.378q1.419-.846,2.837-1.686V82.287q4.485-12.126,8.97-24.15l.733-2.062q.915-.517,1.83-1.027,4-2.234,8.009-4.338,2.242-1.174,4.484-2.3-.938,2.506-1.876,5.022Q364.585,74.48,356.622,96.09c5.325,9.445,10.649,19.015,15.972,28.807q.824,1.57,1.648,3.148-2.151,1.079-4.3,2.207-4,2.1-8.009,4.338-.938.523-1.876,1.053l-.733-1.325q-4.462-8.042-8.924-15.967v22.883q-1.419.839-2.837,1.686-3.707,2.212-7.414,4.461l-2.838,1.72V69.558l2.838-1.72Q343.854,65.595,347.561,63.378Z" transform="translate(-173.929 -35.339)" fill="#161615"/>
            <path id="Path_73" data-name="Path 73" d="M440.385,24.875q1.442-.374,2.883-.706V37.3q-1.441.332-2.883.706a132.963,132.963,0,0,0-15.377,5.066V63.166q4-1.579,8.008-2.9,1.419-.465,2.838-.895V72.462q-1.419.43-2.838.895-4,1.314-8.008,2.9V96.392a132.962,132.962,0,0,1,15.377-5.066q1.442-.374,2.883-.706V103.71q-1.441.332-2.883.705a150.574,150.574,0,0,0-25.628,9.487q-1.42.661-2.838,1.347V35.708q1.42-.685,2.838-1.347A150.571,150.571,0,0,1,440.385,24.875Z" transform="translate(-208.306 -24.169)" fill="#161615"/>
            <path id="Path_74" data-name="Path 74" d="M45.911,282.405q1.053,1.013,2.105,1.98.32,1.3.641,2.6,2.288,11.842,4.577,23.471,2.266-7.93,4.531-16.062l.64-1.554q1.053.749,2.105,1.456a86.366,86.366,0,0,0,7.734,4.638q1.922,1.018,3.844,1.905-.549,1.577-1.1,3.144-5.584,15.758-11.167,30.4l-.046.106v38.81q-1.441-.988-2.883-2.056-3.684-2.728-7.368-5.993-1.441-1.28-2.883-2.644V323.79q-5.584-23.8-11.167-48.929-.572-2.51-1.144-5.035,1.923,2.334,3.845,4.5Q42.043,278.69,45.911,282.405Z" transform="translate(-34.332 -137.356)" fill="#161615"/>
            <path id="Path_75" data-name="Path 75" d="M139.095,344.045a16.116,16.116,0,0,1,5.171,12.143v44.255a17.958,17.958,0,0,1-5.171,12.754,13.946,13.946,0,0,1-12.449,4.475c-4.911-.7-9.062-3.534-12.448-8.109a24.052,24.052,0,0,1-5.171-14.392V350.916c0-4.9,1.723-8.253,5.171-10.506,3.417-2.34,7.567-2.975,12.448-2.279A21.53,21.53,0,0,1,139.095,344.045Zm-15.652,8.018A3.566,3.566,0,0,0,122.116,355v44.255a5.3,5.3,0,0,0,1.327,3.468,5.15,5.15,0,0,0,3.2,1.858,3.887,3.887,0,0,0,3.158-.949,3.985,3.985,0,0,0,1.328-3.087V356.292a4.772,4.772,0,0,0-1.328-3.321,5.147,5.147,0,0,0-3.158-1.705A3.969,3.969,0,0,0,123.443,352.062Z" transform="translate(-68.748 -168.705)" fill="#161615"/>
            <path id="Path_76" data-name="Path 76" d="M217.687,379.565c0,4.844-1.723,9.812-5.171,14.72s-7.6,8.254-12.448,9.814c-4.912,1.576-9.062.86-12.448-1.914-3.447-2.772-5.172-6.726-5.172-11.566V328.7q1.419-.2,2.838-.448,3.707-.643,7.414-1.579,1.42-.357,2.838-.752v61.921a3.242,3.242,0,0,0,1.327,2.825,3.528,3.528,0,0,0,3.2.346,6.352,6.352,0,0,0,3.158-2.384,6.13,6.13,0,0,0,1.327-3.674V323.031q1.441-.518,2.883-1.071,3.684-1.411,7.368-3.027,1.441-.631,2.883-1.289v61.921Z" transform="translate(-102.577 -159.388)" fill="#161615"/>
            <path id="Path_77" data-name="Path 77" d="M259.047,382.631q-1.419.71-2.838,1.4V304.489q1.42-.688,2.838-1.4,3.707-1.856,7.414-3.852,2.288-1.229,4.577-2.5c5.37-2.989,9.963-3.783,13.776-2.235s5.721,4.976,5.721,10.348v11.9c0,4.941-1.648,10.243-4.943,15.871,3.295,1.726,4.943,5.027,4.943,9.942v15.011q-.184,4.915,1.19,6.6c-4.363,2.635-8.726,5.246-13.09,7.779a4.748,4.748,0,0,1-1.006-2.8q-.184-1.907-.229-3.8V350.336c0-1.77-.626-2.9-1.876-3.407-1.251-.536-2.746-.314-4.485.653q-.869.483-1.739.961v28.695q-1.42.779-2.838,1.542Q262.754,380.77,259.047,382.631ZM269.3,335.453q.869-.478,1.739-.961a12.668,12.668,0,0,0,4.485-4.406,10.472,10.472,0,0,0,1.876-5.563v-11.9c0-1.77-.626-2.9-1.876-3.407-1.251-.536-2.746-.314-4.485.653q-.869.484-1.739.961Z" transform="translate(-136.562 -148.369)" fill="#161615"/>
            <path id="Path_78" data-name="Path 78" d="M377.023,313.974c-4.3,2.331-8.6,4.78-12.906,7.3q-1.419.831-2.837,1.67V243.4q1.419-.84,2.837-1.67c4.3-2.517,8.6-4.966,12.906-7.3,5.339-2.894,9.916-3.278,13.73-1.255,3.814,2,5.72,5.8,5.72,11.192v7.368a25.534,25.534,0,0,1-1.876,9.2,37.073,37.073,0,0,1-3.067,5.927,11.425,11.425,0,0,1,3.067,3.18,14.406,14.406,0,0,1,1.876,7.506v7.414c0,5.408-1.908,10.774-5.72,16.313A39.049,39.049,0,0,1,377.023,313.974Zm0-46.314a12.531,12.531,0,0,0,4.485-4.262,9.983,9.983,0,0,0,1.877-5.454v-7.368a3.521,3.521,0,0,0-1.877-3.516c-1.251-.6-2.745-.434-4.485.508q-1.327.719-2.654,1.452v20.091Q375.7,268.379,377.023,267.66Zm4.485,28.965a9.984,9.984,0,0,0,1.877-5.454v-7.414a3.521,3.521,0,0,0-1.877-3.516c-1.251-.6-2.745-.434-4.485.509q-1.327.719-2.654,1.453v20.137q1.327-.733,2.654-1.452A12.529,12.529,0,0,0,381.508,296.625Z" transform="translate(-184.974 -119.887)" fill="#161615"/>
            <path id="Path_79" data-name="Path 79" d="M469.431,261.881a18.538,18.538,0,0,1-5.171,12.868,24.067,24.067,0,0,1-12.448,7.433c-4.913,1.22-9.062.869-12.448-1.358-3.448-2.192-5.172-5.612-5.172-10.471V208.43q1.419-.57,2.838-1.111,3.706-1.41,7.413-2.592,1.42-.451,2.838-.865v61.921a3.254,3.254,0,0,0,1.327,2.825,3.8,3.8,0,0,0,3.2.483,5.851,5.851,0,0,0,3.158-2.058,5.359,5.359,0,0,0,1.327-3.48V201.633q1.441-.29,2.883-.535,3.684-.626,7.368-.944,1.441-.122,2.883-.194v61.921Z" transform="translate(-218.569 -105.165)" fill="#161615"/>
            <path id="Path_80" data-name="Path 80" d="M506,212.921q-1.441-.017-2.883.019V199.8q1.441-.036,2.883-.019a72.732,72.732,0,0,1,11.075.973,70.594,70.594,0,0,1,7.368,1.634,73.459,73.459,0,0,1,11.076,4.079q1.419.654,2.838,1.379v13.134q-1.419-.725-2.838-1.379a74.227,74.227,0,0,0-8.192-3.211V282.8q-1.441-.468-2.883-.868a70.59,70.59,0,0,0-7.368-1.634q-1.441-.239-2.883-.419V213.474A73.6,73.6,0,0,0,506,212.921Z" transform="translate(-250.326 -105.082)" fill="#161615"/>
            <path id="Path_81" data-name="Path 81" d="M570.848,229.16q-1.441-.8-2.883-1.533V214.493q1.442.73,2.883,1.533a91.6,91.6,0,0,1,11.075,7.31q3.684,2.821,7.368,6.182a138.423,138.423,0,0,1,11.075,11.414q1.42,1.632,2.838,3.354V257.42q-1.419-1.722-2.838-3.355-4.1-4.712-8.192-8.693v66.406q-1.442-1.4-2.883-2.72-3.684-3.366-7.368-6.182-1.441-1.1-2.883-2.127V234.344A89.2,89.2,0,0,0,570.848,229.16Z" transform="translate(-280.205 -111.861)" fill="#161615"/>
          </g>
        </g>
      </g>
    </g>
    <g id="Group_67" data-name="Group 67">
      <g id="Group_66" data-name="Group 66" transform="translate(487.168 6450.831)">
        <g id="Group_64-2" data-name="Group 64">
          <g id="Group_63-2" data-name="Group 63">
            <g id="Group_44-2" data-name="Group 44" transform="translate(34.332 24.169)">
              <path id="Path_69-2" data-name="Path 69" d="M154.029,159.205q1.418-.019,2.837-.088v79.541q-1.419.07-2.837.088-3.707.049-7.414-.266-1.419-.122-2.838-.3V158.638q1.419.179,2.838.3Q150.322,159.258,154.029,159.205Z" transform="translate(-84.759 -86.126)" fill="#161615"/>
              <path id="Path_70-2" data-name="Path 70" d="M246.72,132.847q1.419-.684,2.838-1.392v66.451c4.927-2.456,9.855-5.113,14.782-7.895q1.441-.814,2.883-1.641v13.089q-1.441.827-2.883,1.641a271.887,271.887,0,0,1-25.033,12.691q-1.419.616-2.838,1.205V137.456q1.419-.588,2.838-1.205Q243.013,134.639,246.72,132.847Z" transform="translate(-127.467 -73.601)" fill="#161615"/>
              <path id="Path_71-2" data-name="Path 71" d="M310.806,96.911q1.419-.856,2.837-1.714v79.541q-1.419.858-2.837,1.714-3.707,2.234-7.414,4.43-1.419.838-2.838,1.668V103.009q1.419-.829,2.838-1.668Q307.1,99.151,310.806,96.911Z" transform="translate(-156.994 -56.895)" fill="#161615"/>
              <path id="Path_72-2" data-name="Path 72" d="M347.561,63.378q1.419-.846,2.837-1.686V82.287q4.485-12.126,8.97-24.15l.733-2.062q.915-.517,1.83-1.027,4-2.234,8.009-4.338,2.242-1.174,4.484-2.3-.938,2.506-1.876,5.022Q364.585,74.48,356.622,96.09c5.325,9.445,10.649,19.015,15.972,28.807q.824,1.57,1.648,3.148-2.151,1.079-4.3,2.207-4,2.1-8.009,4.338-.938.523-1.876,1.053l-.733-1.325q-4.462-8.042-8.924-15.967v22.883q-1.419.839-2.837,1.686-3.707,2.212-7.414,4.461l-2.838,1.72V69.558l2.838-1.72Q343.854,65.595,347.561,63.378Z" transform="translate(-173.929 -35.339)" fill="#161615"/>
              <path id="Path_73-2" data-name="Path 73" d="M440.385,24.875q1.442-.374,2.883-.706V37.3q-1.441.332-2.883.706a132.963,132.963,0,0,0-15.377,5.066V63.166q4-1.579,8.008-2.9,1.419-.465,2.838-.895V72.462q-1.419.43-2.838.895-4,1.314-8.008,2.9V96.392a132.962,132.962,0,0,1,15.377-5.066q1.442-.374,2.883-.706V103.71q-1.441.332-2.883.705a150.574,150.574,0,0,0-25.628,9.487q-1.42.661-2.838,1.347V35.708q1.42-.685,2.838-1.347A150.571,150.571,0,0,1,440.385,24.875Z" transform="translate(-208.306 -24.169)" fill="#161615"/>
              <path id="Path_74-2" data-name="Path 74" d="M45.911,282.405q1.053,1.013,2.105,1.98.32,1.3.641,2.6,2.288,11.842,4.577,23.471,2.266-7.93,4.531-16.062l.64-1.554q1.053.749,2.105,1.456a86.366,86.366,0,0,0,7.734,4.638q1.922,1.018,3.844,1.905-.549,1.577-1.1,3.144-5.584,15.758-11.167,30.4l-.046.106v38.81q-1.441-.988-2.883-2.056-3.684-2.728-7.368-5.993-1.441-1.28-2.883-2.644V323.79q-5.584-23.8-11.167-48.929-.572-2.51-1.144-5.035,1.923,2.334,3.845,4.5Q42.043,278.69,45.911,282.405Z" transform="translate(-34.332 -137.356)" fill="#161615"/>
              <path id="Path_75-2" data-name="Path 75" d="M139.095,344.045a16.116,16.116,0,0,1,5.171,12.143v44.255a17.958,17.958,0,0,1-5.171,12.754,13.946,13.946,0,0,1-12.449,4.475c-4.911-.7-9.062-3.534-12.448-8.109a24.052,24.052,0,0,1-5.171-14.392V350.916c0-4.9,1.723-8.253,5.171-10.506,3.417-2.34,7.567-2.975,12.448-2.279A21.53,21.53,0,0,1,139.095,344.045Zm-15.652,8.018A3.566,3.566,0,0,0,122.116,355v44.255a5.3,5.3,0,0,0,1.327,3.468,5.15,5.15,0,0,0,3.2,1.858,3.887,3.887,0,0,0,3.158-.949,3.985,3.985,0,0,0,1.328-3.087V356.292a4.772,4.772,0,0,0-1.328-3.321,5.147,5.147,0,0,0-3.158-1.705A3.969,3.969,0,0,0,123.443,352.062Z" transform="translate(-68.748 -168.705)" fill="#161615"/>
              <path id="Path_76-2" data-name="Path 76" d="M217.687,379.565c0,4.844-1.723,9.812-5.171,14.72s-7.6,8.254-12.448,9.814c-4.912,1.576-9.062.86-12.448-1.914-3.447-2.772-5.172-6.726-5.172-11.566V328.7q1.419-.2,2.838-.448,3.707-.643,7.414-1.579,1.42-.357,2.838-.752v61.921a3.242,3.242,0,0,0,1.327,2.825,3.528,3.528,0,0,0,3.2.346,6.352,6.352,0,0,0,3.158-2.384,6.13,6.13,0,0,0,1.327-3.674V323.031q1.441-.518,2.883-1.071,3.684-1.411,7.368-3.027,1.441-.631,2.883-1.289v61.921Z" transform="translate(-102.577 -159.388)" fill="#161615"/>
              <path id="Path_77-2" data-name="Path 77" d="M259.047,382.631q-1.419.71-2.838,1.4V304.489q1.42-.688,2.838-1.4,3.707-1.856,7.414-3.852,2.288-1.229,4.577-2.5c5.37-2.989,9.963-3.783,13.776-2.235s5.721,4.976,5.721,10.348v11.9c0,4.941-1.648,10.243-4.943,15.871,3.295,1.726,4.943,5.027,4.943,9.942v15.011q-.184,4.915,1.19,6.6c-4.363,2.635-8.726,5.246-13.09,7.779a4.748,4.748,0,0,1-1.006-2.8q-.184-1.907-.229-3.8V350.336c0-1.77-.626-2.9-1.876-3.407-1.251-.536-2.746-.314-4.485.653q-.869.483-1.739.961v28.695q-1.42.779-2.838,1.542Q262.754,380.77,259.047,382.631ZM269.3,335.453q.869-.478,1.739-.961a12.668,12.668,0,0,0,4.485-4.406,10.472,10.472,0,0,0,1.876-5.563v-11.9c0-1.77-.626-2.9-1.876-3.407-1.251-.536-2.746-.314-4.485.653q-.869.484-1.739.961Z" transform="translate(-136.562 -148.369)" fill="#161615"/>
              <path id="Path_78-2" data-name="Path 78" d="M377.023,313.974c-4.3,2.331-8.6,4.78-12.906,7.3q-1.419.831-2.837,1.67V243.4q1.419-.84,2.837-1.67c4.3-2.517,8.6-4.966,12.906-7.3,5.339-2.894,9.916-3.278,13.73-1.255,3.814,2,5.72,5.8,5.72,11.192v7.368a25.534,25.534,0,0,1-1.876,9.2,37.073,37.073,0,0,1-3.067,5.927,11.425,11.425,0,0,1,3.067,3.18,14.406,14.406,0,0,1,1.876,7.506v7.414c0,5.408-1.908,10.774-5.72,16.313A39.049,39.049,0,0,1,377.023,313.974Zm0-46.314a12.531,12.531,0,0,0,4.485-4.262,9.983,9.983,0,0,0,1.877-5.454v-7.368a3.521,3.521,0,0,0-1.877-3.516c-1.251-.6-2.745-.434-4.485.508q-1.327.719-2.654,1.452v20.091Q375.7,268.379,377.023,267.66Zm4.485,28.965a9.984,9.984,0,0,0,1.877-5.454v-7.414a3.521,3.521,0,0,0-1.877-3.516c-1.251-.6-2.745-.434-4.485.509q-1.327.719-2.654,1.453v20.137q1.327-.733,2.654-1.452A12.529,12.529,0,0,0,381.508,296.625Z" transform="translate(-184.974 -119.887)" fill="#161615"/>
              <path id="Path_79-2" data-name="Path 79" d="M469.431,261.881a18.538,18.538,0,0,1-5.171,12.868,24.067,24.067,0,0,1-12.448,7.433c-4.913,1.22-9.062.869-12.448-1.358-3.448-2.192-5.172-5.612-5.172-10.471V208.43q1.419-.57,2.838-1.111,3.706-1.41,7.413-2.592,1.42-.451,2.838-.865v61.921a3.254,3.254,0,0,0,1.327,2.825,3.8,3.8,0,0,0,3.2.483,5.851,5.851,0,0,0,3.158-2.058,5.359,5.359,0,0,0,1.327-3.48V201.633q1.441-.29,2.883-.535,3.684-.626,7.368-.944,1.441-.122,2.883-.194v61.921Z" transform="translate(-218.569 -105.165)" fill="#161615"/>
              <path id="Path_80-2" data-name="Path 80" d="M506,212.921q-1.441-.017-2.883.019V199.8q1.441-.036,2.883-.019a72.732,72.732,0,0,1,11.075.973,70.594,70.594,0,0,1,7.368,1.634,73.459,73.459,0,0,1,11.076,4.079q1.419.654,2.838,1.379v13.134q-1.419-.725-2.838-1.379a74.227,74.227,0,0,0-8.192-3.211V282.8q-1.441-.468-2.883-.868a70.59,70.59,0,0,0-7.368-1.634q-1.441-.239-2.883-.419V213.474A73.6,73.6,0,0,0,506,212.921Z" transform="translate(-250.326 -105.082)" fill="#161615"/>
              <path id="Path_81-2" data-name="Path 81" d="M570.848,229.16q-1.441-.8-2.883-1.533V214.493q1.442.73,2.883,1.533a91.6,91.6,0,0,1,11.075,7.31q3.684,2.821,7.368,6.182a138.423,138.423,0,0,1,11.075,11.414q1.42,1.632,2.838,3.354V257.42q-1.419-1.722-2.838-3.355-4.1-4.712-8.192-8.693v66.406q-1.442-1.4-2.883-2.72-3.684-3.366-7.368-6.182-1.441-1.1-2.883-2.127V234.344A89.2,89.2,0,0,0,570.848,229.16Z" transform="translate(-280.205 -111.861)" fill="#161615"/>
            </g>
          </g>
        </g>
      </g>
    </g>
    <g id="Group_68" data-name="Group 68" transform="translate(-69 -279)">
      <g id="Group_66-2" data-name="Group 66" transform="translate(487.168 6450.831)">
        <g id="Group_64-3" data-name="Group 64">
          <g id="Group_63-3" data-name="Group 63">
            <g id="Group_44-3" data-name="Group 44" transform="translate(34.332 24.169)">
              <path id="Path_69-3" data-name="Path 69" d="M154.029,159.205q1.418-.019,2.837-.088v79.541q-1.419.07-2.837.088-3.707.049-7.414-.266-1.419-.122-2.838-.3V158.638q1.419.179,2.838.3Q150.322,159.258,154.029,159.205Z" transform="translate(-84.759 -86.126)" fill="#161615"/>
              <path id="Path_70-3" data-name="Path 70" d="M246.72,132.847q1.419-.684,2.838-1.392v66.451c4.927-2.456,9.855-5.113,14.782-7.895q1.441-.814,2.883-1.641v13.089q-1.441.827-2.883,1.641a271.887,271.887,0,0,1-25.033,12.691q-1.419.616-2.838,1.205V137.456q1.419-.588,2.838-1.205Q243.013,134.639,246.72,132.847Z" transform="translate(-127.467 -73.601)" fill="#161615"/>
              <path id="Path_71-3" data-name="Path 71" d="M310.806,96.911q1.419-.856,2.837-1.714v79.541q-1.419.858-2.837,1.714-3.707,2.234-7.414,4.43-1.419.838-2.838,1.668V103.009q1.419-.829,2.838-1.668Q307.1,99.151,310.806,96.911Z" transform="translate(-156.994 -56.895)" fill="#161615"/>
              <path id="Path_72-3" data-name="Path 72" d="M347.561,63.378q1.419-.846,2.837-1.686V82.287q4.485-12.126,8.97-24.15l.733-2.062q.915-.517,1.83-1.027,4-2.234,8.009-4.338,2.242-1.174,4.484-2.3-.938,2.506-1.876,5.022Q364.585,74.48,356.622,96.09c5.325,9.445,10.649,19.015,15.972,28.807q.824,1.57,1.648,3.148-2.151,1.079-4.3,2.207-4,2.1-8.009,4.338-.938.523-1.876,1.053l-.733-1.325q-4.462-8.042-8.924-15.967v22.883q-1.419.839-2.837,1.686-3.707,2.212-7.414,4.461l-2.838,1.72V69.558l2.838-1.72Q343.854,65.595,347.561,63.378Z" transform="translate(-173.929 -35.339)" fill="#161615"/>
              <path id="Path_73-3" data-name="Path 73" d="M440.385,24.875q1.442-.374,2.883-.706V37.3q-1.441.332-2.883.706a132.963,132.963,0,0,0-15.377,5.066V63.166q4-1.579,8.008-2.9,1.419-.465,2.838-.895V72.462q-1.419.43-2.838.895-4,1.314-8.008,2.9V96.392a132.962,132.962,0,0,1,15.377-5.066q1.442-.374,2.883-.706V103.71q-1.441.332-2.883.705a150.574,150.574,0,0,0-25.628,9.487q-1.42.661-2.838,1.347V35.708q1.42-.685,2.838-1.347A150.571,150.571,0,0,1,440.385,24.875Z" transform="translate(-208.306 -24.169)" fill="#161615"/>
              <path id="Path_74-3" data-name="Path 74" d="M45.911,282.405q1.053,1.013,2.105,1.98.32,1.3.641,2.6,2.288,11.842,4.577,23.471,2.266-7.93,4.531-16.062l.64-1.554q1.053.749,2.105,1.456a86.366,86.366,0,0,0,7.734,4.638q1.922,1.018,3.844,1.905-.549,1.577-1.1,3.144-5.584,15.758-11.167,30.4l-.046.106v38.81q-1.441-.988-2.883-2.056-3.684-2.728-7.368-5.993-1.441-1.28-2.883-2.644V323.79q-5.584-23.8-11.167-48.929-.572-2.51-1.144-5.035,1.923,2.334,3.845,4.5Q42.043,278.69,45.911,282.405Z" transform="translate(-34.332 -137.356)" fill="#161615"/>
              <path id="Path_75-3" data-name="Path 75" d="M139.095,344.045a16.116,16.116,0,0,1,5.171,12.143v44.255a17.958,17.958,0,0,1-5.171,12.754,13.946,13.946,0,0,1-12.449,4.475c-4.911-.7-9.062-3.534-12.448-8.109a24.052,24.052,0,0,1-5.171-14.392V350.916c0-4.9,1.723-8.253,5.171-10.506,3.417-2.34,7.567-2.975,12.448-2.279A21.53,21.53,0,0,1,139.095,344.045Zm-15.652,8.018A3.566,3.566,0,0,0,122.116,355v44.255a5.3,5.3,0,0,0,1.327,3.468,5.15,5.15,0,0,0,3.2,1.858,3.887,3.887,0,0,0,3.158-.949,3.985,3.985,0,0,0,1.328-3.087V356.292a4.772,4.772,0,0,0-1.328-3.321,5.147,5.147,0,0,0-3.158-1.705A3.969,3.969,0,0,0,123.443,352.062Z" transform="translate(-68.748 -168.705)" fill="#161615"/>
              <path id="Path_76-3" data-name="Path 76" d="M217.687,379.565c0,4.844-1.723,9.812-5.171,14.72s-7.6,8.254-12.448,9.814c-4.912,1.576-9.062.86-12.448-1.914-3.447-2.772-5.172-6.726-5.172-11.566V328.7q1.419-.2,2.838-.448,3.707-.643,7.414-1.579,1.42-.357,2.838-.752v61.921a3.242,3.242,0,0,0,1.327,2.825,3.528,3.528,0,0,0,3.2.346,6.352,6.352,0,0,0,3.158-2.384,6.13,6.13,0,0,0,1.327-3.674V323.031q1.441-.518,2.883-1.071,3.684-1.411,7.368-3.027,1.441-.631,2.883-1.289v61.921Z" transform="translate(-102.577 -159.388)" fill="#161615"/>
              <path id="Path_77-3" data-name="Path 77" d="M259.047,382.631q-1.419.71-2.838,1.4V304.489q1.42-.688,2.838-1.4,3.707-1.856,7.414-3.852,2.288-1.229,4.577-2.5c5.37-2.989,9.963-3.783,13.776-2.235s5.721,4.976,5.721,10.348v11.9c0,4.941-1.648,10.243-4.943,15.871,3.295,1.726,4.943,5.027,4.943,9.942v15.011q-.184,4.915,1.19,6.6c-4.363,2.635-8.726,5.246-13.09,7.779a4.748,4.748,0,0,1-1.006-2.8q-.184-1.907-.229-3.8V350.336c0-1.77-.626-2.9-1.876-3.407-1.251-.536-2.746-.314-4.485.653q-.869.483-1.739.961v28.695q-1.42.779-2.838,1.542Q262.754,380.77,259.047,382.631ZM269.3,335.453q.869-.478,1.739-.961a12.668,12.668,0,0,0,4.485-4.406,10.472,10.472,0,0,0,1.876-5.563v-11.9c0-1.77-.626-2.9-1.876-3.407-1.251-.536-2.746-.314-4.485.653q-.869.484-1.739.961Z" transform="translate(-136.562 -148.369)" fill="#161615"/>
              <path id="Path_78-3" data-name="Path 78" d="M377.023,313.974c-4.3,2.331-8.6,4.78-12.906,7.3q-1.419.831-2.837,1.67V243.4q1.419-.84,2.837-1.67c4.3-2.517,8.6-4.966,12.906-7.3,5.339-2.894,9.916-3.278,13.73-1.255,3.814,2,5.72,5.8,5.72,11.192v7.368a25.534,25.534,0,0,1-1.876,9.2,37.073,37.073,0,0,1-3.067,5.927,11.425,11.425,0,0,1,3.067,3.18,14.406,14.406,0,0,1,1.876,7.506v7.414c0,5.408-1.908,10.774-5.72,16.313A39.049,39.049,0,0,1,377.023,313.974Zm0-46.314a12.531,12.531,0,0,0,4.485-4.262,9.983,9.983,0,0,0,1.877-5.454v-7.368a3.521,3.521,0,0,0-1.877-3.516c-1.251-.6-2.745-.434-4.485.508q-1.327.719-2.654,1.452v20.091Q375.7,268.379,377.023,267.66Zm4.485,28.965a9.984,9.984,0,0,0,1.877-5.454v-7.414a3.521,3.521,0,0,0-1.877-3.516c-1.251-.6-2.745-.434-4.485.509q-1.327.719-2.654,1.453v20.137q1.327-.733,2.654-1.452A12.529,12.529,0,0,0,381.508,296.625Z" transform="translate(-184.974 -119.887)" fill="#161615"/>
              <path id="Path_79-3" data-name="Path 79" d="M469.431,261.881a18.538,18.538,0,0,1-5.171,12.868,24.067,24.067,0,0,1-12.448,7.433c-4.913,1.22-9.062.869-12.448-1.358-3.448-2.192-5.172-5.612-5.172-10.471V208.43q1.419-.57,2.838-1.111,3.706-1.41,7.413-2.592,1.42-.451,2.838-.865v61.921a3.254,3.254,0,0,0,1.327,2.825,3.8,3.8,0,0,0,3.2.483,5.851,5.851,0,0,0,3.158-2.058,5.359,5.359,0,0,0,1.327-3.48V201.633q1.441-.29,2.883-.535,3.684-.626,7.368-.944,1.441-.122,2.883-.194v61.921Z" transform="translate(-218.569 -105.165)" fill="#161615"/>
              <path id="Path_80-3" data-name="Path 80" d="M506,212.921q-1.441-.017-2.883.019V199.8q1.441-.036,2.883-.019a72.732,72.732,0,0,1,11.075.973,70.594,70.594,0,0,1,7.368,1.634,73.459,73.459,0,0,1,11.076,4.079q1.419.654,2.838,1.379v13.134q-1.419-.725-2.838-1.379a74.227,74.227,0,0,0-8.192-3.211V282.8q-1.441-.468-2.883-.868a70.59,70.59,0,0,0-7.368-1.634q-1.441-.239-2.883-.419V213.474A73.6,73.6,0,0,0,506,212.921Z" transform="translate(-250.326 -105.082)" fill="#161615"/>
              <path id="Path_81-3" data-name="Path 81" d="M570.848,229.16q-1.441-.8-2.883-1.533V214.493q1.442.73,2.883,1.533a91.6,91.6,0,0,1,11.075,7.31q3.684,2.821,7.368,6.182a138.423,138.423,0,0,1,11.075,11.414q1.42,1.632,2.838,3.354V257.42q-1.419-1.722-2.838-3.355-4.1-4.712-8.192-8.693v66.406q-1.442-1.4-2.883-2.72-3.684-3.366-7.368-6.182-1.441-1.1-2.883-2.127V234.344A89.2,89.2,0,0,0,570.848,229.16Z" transform="translate(-280.205 -111.861)" fill="#161615"/>
            </g>
          </g>
        </g>
      </g>
    </g>
  </g>
</svg>
