<svg xmlns="http://www.w3.org/2000/svg" width="1350" height="343"><defs><clipPath id="a"><path data-name="Rectangle 27" transform="translate(675 6456)" fill="#161615" d="M0 0h675v343H0z"/></clipPath><clipPath id="b"><path data-name="Rectangle 28" transform="translate(0 6475)" fill="#161615" d="M0 0h675v324H0z"/></clipPath></defs><g data-name="Group 59"><g data-name="Mask Group 9" clip-path="url(#a)" transform="translate(0 -6456)"><g data-name="Group 49"><g data-name="Group 44" fill="#fff"><path data-name="Path 69" d="M590.77 6548.079q1.418-.019 2.837-.088v79.541q-1.419.07-2.837.088-3.707.049-7.414-.266-1.419-.122-2.838-.3v-79.542q1.419.179 2.838.3 3.707.32 7.414.267z"/><path data-name="Path 70" d="M640.753 6534.246q1.419-.684 2.838-1.392v66.451c4.927-2.456 9.855-5.113 14.782-7.895q1.441-.814 2.883-1.641v13.089q-1.441.827-2.883 1.641a271.887 271.887 0 01-25.033 12.691q-1.419.616-2.838 1.205v-79.54q1.419-.588 2.838-1.205 3.706-1.612 7.413-3.404z"/><path data-name="Path 71" d="M675.312 6515.016q1.419-.856 2.837-1.714v79.541l-2.837 1.714q-3.707 2.234-7.414 4.43-1.419.838-2.838 1.668v-79.541q1.419-.829 2.838-1.668 3.708-2.19 7.414-4.43z"/><path data-name="Path 72" d="M695.132 6503.039q1.419-.846 2.837-1.686v20.595q4.485-12.126 8.97-24.15l.733-2.062q.915-.517 1.83-1.027 4-2.234 8.009-4.338 2.242-1.174 4.484-2.3-.938 2.506-1.876 5.022-7.963 21.048-15.926 42.658a2127.15 2127.15 0 0115.972 28.807q.824 1.57 1.648 3.148-2.151 1.079-4.3 2.207-4 2.1-8.009 4.338-.938.523-1.876 1.053l-.733-1.325q-4.462-8.042-8.924-15.967v22.883q-1.419.839-2.837 1.686-3.707 2.212-7.414 4.461l-2.838 1.72v-79.543l2.838-1.72q3.705-2.243 7.412-4.46z"/><path data-name="Path 73" d="M753.579 6475.706q1.442-.374 2.883-.706v13.131q-1.441.332-2.883.706a132.963 132.963 0 00-15.377 5.066v20.094q4-1.579 8.008-2.9 1.419-.465 2.838-.895v13.091q-1.419.43-2.838.895-4 1.314-8.008 2.9v20.135a132.962 132.962 0 0115.377-5.066q1.442-.374 2.883-.706v13.09q-1.441.332-2.883.705a150.574 150.574 0 00-25.628 9.487q-1.42.661-2.838 1.347v-79.541q1.42-.685 2.838-1.347a150.571 150.571 0 0125.628-9.486z"/><path data-name="Path 74" d="M533.079 6620.049q1.053 1.013 2.105 1.98l.641 2.6q2.288 11.842 4.577 23.471 2.266-7.93 4.531-16.062l.64-1.554q1.053.749 2.105 1.456a86.366 86.366 0 007.734 4.638q1.922 1.018 3.844 1.905-.549 1.577-1.1 3.144-5.584 15.758-11.167 30.4l-.046.106v38.81q-1.441-.988-2.883-2.056-3.684-2.728-7.368-5.993-1.441-1.28-2.883-2.644v-38.816q-5.584-23.8-11.167-48.929-.572-2.51-1.144-5.035 1.923 2.334 3.845 4.5 3.868 4.364 7.736 8.079z"/><path data-name="Path 75" d="M591.847 6650.34a16.116 16.116 0 015.171 12.143v44.255a17.958 17.958 0 01-5.171 12.754 13.946 13.946 0 01-12.449 4.475c-4.911-.7-9.062-3.534-12.448-8.109a24.052 24.052 0 01-5.171-14.392v-44.255c0-4.9 1.723-8.253 5.171-10.506 3.417-2.34 7.567-2.975 12.448-2.279a21.53 21.53 0 0112.449 5.914zm-15.652 8.018a3.566 3.566 0 00-1.327 2.937v44.255a5.3 5.3 0 001.327 3.468 5.15 5.15 0 003.2 1.858 3.887 3.887 0 003.158-.949 3.985 3.985 0 001.328-3.087v-44.253a4.772 4.772 0 00-1.328-3.321 5.147 5.147 0 00-3.158-1.705 3.969 3.969 0 00-3.2.796z"/><path data-name="Path 76" d="M636.61 6695.177c0 4.844-1.723 9.812-5.171 14.72s-7.6 8.254-12.448 9.814c-4.912 1.576-9.062.86-12.448-1.914-3.447-2.772-5.172-6.726-5.172-11.566v-61.919q1.419-.2 2.838-.448 3.707-.643 7.414-1.579 1.42-.357 2.838-.752v61.921a3.242 3.242 0 001.327 2.825 3.528 3.528 0 003.2.346 6.352 6.352 0 003.158-2.384 6.13 6.13 0 001.327-3.674v-61.924q1.441-.518 2.883-1.071 3.684-1.411 7.368-3.027 1.441-.631 2.883-1.289v61.921z"/><path data-name="Path 77" d="M643.985 6709.262q-1.419.71-2.838 1.4v-79.542q1.42-.688 2.838-1.4 3.707-1.856 7.414-3.852 2.288-1.229 4.577-2.5c5.37-2.989 9.963-3.783 13.776-2.235s5.721 4.976 5.721 10.348v11.9c0 4.941-1.648 10.243-4.943 15.871 3.295 1.726 4.943 5.027 4.943 9.942v15.011q-.184 4.915 1.19 6.6a876.32 876.32 0 01-13.09 7.779 4.748 4.748 0 01-1.006-2.8q-.184-1.907-.229-3.8v-15.017c0-1.77-.626-2.9-1.876-3.407-1.251-.536-2.746-.314-4.485.653q-.869.483-1.739.961v28.695q-1.42.779-2.838 1.542-3.708 1.99-7.415 3.851zm10.253-47.178q.869-.478 1.739-.961a12.668 12.668 0 004.485-4.406 10.472 10.472 0 001.876-5.563v-11.9c0-1.77-.626-2.9-1.876-3.407-1.251-.536-2.746-.314-4.485.653q-.869.484-1.739.961z"/><path data-name="Path 78" d="M713.549 6669.087c-4.3 2.331-8.6 4.78-12.906 7.3q-1.419.831-2.837 1.67v-79.544q1.419-.84 2.837-1.67c4.3-2.517 8.6-4.966 12.906-7.3 5.339-2.894 9.916-3.278 13.73-1.255 3.814 2 5.72 5.8 5.72 11.192v7.368a25.534 25.534 0 01-1.876 9.2 37.073 37.073 0 01-3.067 5.927 11.425 11.425 0 013.067 3.18 14.406 14.406 0 011.876 7.506v7.414c0 5.408-1.908 10.774-5.72 16.313a39.049 39.049 0 01-13.73 12.699zm0-46.314a12.531 12.531 0 004.485-4.262 9.983 9.983 0 001.877-5.454v-7.368a3.521 3.521 0 00-1.877-3.516c-1.251-.6-2.745-.434-4.485.508q-1.327.719-2.654 1.452v20.091q1.331-.732 2.654-1.451zm4.485 28.965a9.984 9.984 0 001.877-5.454v-7.414a3.521 3.521 0 00-1.877-3.516c-1.251-.6-2.745-.434-4.485.509q-1.327.719-2.654 1.453v20.137q1.327-.733 2.654-1.452a12.529 12.529 0 004.485-4.263z"/><path data-name="Path 79" d="M772.362 6631.716a18.538 18.538 0 01-5.171 12.868 24.067 24.067 0 01-12.448 7.433c-4.913 1.22-9.062.869-12.448-1.358-3.448-2.192-5.172-5.612-5.172-10.471v-61.923q1.419-.57 2.838-1.111 3.706-1.41 7.413-2.592 1.42-.451 2.838-.865v61.921a3.254 3.254 0 001.327 2.825 3.8 3.8 0 003.2.483 5.851 5.851 0 003.158-2.058 5.359 5.359 0 001.327-3.48v-61.92q1.441-.29 2.883-.535 3.684-.626 7.368-.944 1.441-.122 2.883-.194v61.921z"/><path data-name="Path 80" d="M777.174 6582.839q-1.441-.017-2.883.019v-13.14q1.441-.036 2.883-.019a72.732 72.732 0 0111.075.973 70.594 70.594 0 017.368 1.634 73.459 73.459 0 0111.076 4.079q1.419.654 2.838 1.379v13.134q-1.419-.725-2.838-1.379a74.227 74.227 0 00-8.192-3.211v66.41q-1.441-.468-2.883-.868a70.59 70.59 0 00-7.368-1.634q-1.441-.239-2.883-.419v-66.405a73.6 73.6 0 00-8.193-.553z"/><path data-name="Path 81" d="M812.143 6592.299q-1.441-.8-2.883-1.533v-13.134q1.442.73 2.883 1.533a91.6 91.6 0 0111.075 7.31q3.684 2.821 7.368 6.182a138.423 138.423 0 0111.075 11.414q1.42 1.632 2.838 3.354v13.134q-1.419-1.722-2.838-3.355-4.1-4.712-8.192-8.693v66.406q-1.442-1.4-2.883-2.72-3.684-3.366-7.368-6.182-1.441-1.1-2.883-2.127v-66.405a89.2 89.2 0 00-8.192-5.184z"/></g></g></g><g data-name="Mask Group 10" clip-path="url(#b)" transform="translate(0 -6456)"><g data-name="Group 45"><g data-name="Group 44" fill="#161615"><path data-name="Path 69" d="M590.77 6548.079q1.418-.019 2.837-.088v79.541q-1.419.07-2.837.088-3.707.049-7.414-.266-1.419-.122-2.838-.3v-79.542q1.419.179 2.838.3 3.707.32 7.414.267z"/><path data-name="Path 70" d="M640.753 6534.246q1.419-.684 2.838-1.392v66.451c4.927-2.456 9.855-5.113 14.782-7.895q1.441-.814 2.883-1.641v13.089q-1.441.827-2.883 1.641a271.887 271.887 0 01-25.033 12.691q-1.419.616-2.838 1.205v-79.54q1.419-.588 2.838-1.205 3.706-1.612 7.413-3.404z"/><path data-name="Path 71" d="M675.312 6515.016q1.419-.856 2.837-1.714v79.541l-2.837 1.714q-3.707 2.234-7.414 4.43-1.419.838-2.838 1.668v-79.541q1.419-.829 2.838-1.668 3.708-2.19 7.414-4.43z"/><path data-name="Path 72" d="M695.132 6503.039q1.419-.846 2.837-1.686v20.595q4.485-12.126 8.97-24.15l.733-2.062q.915-.517 1.83-1.027 4-2.234 8.009-4.338 2.242-1.174 4.484-2.3-.938 2.506-1.876 5.022-7.963 21.048-15.926 42.658a2127.15 2127.15 0 0115.972 28.807q.824 1.57 1.648 3.148-2.151 1.079-4.3 2.207-4 2.1-8.009 4.338-.938.523-1.876 1.053l-.733-1.325q-4.462-8.042-8.924-15.967v22.883q-1.419.839-2.837 1.686-3.707 2.212-7.414 4.461l-2.838 1.72v-79.543l2.838-1.72q3.705-2.243 7.412-4.46z"/><path data-name="Path 73" d="M753.579 6475.706q1.442-.374 2.883-.706v13.131q-1.441.332-2.883.706a132.963 132.963 0 00-15.377 5.066v20.094q4-1.579 8.008-2.9 1.419-.465 2.838-.895v13.091q-1.419.43-2.838.895-4 1.314-8.008 2.9v20.135a132.962 132.962 0 0115.377-5.066q1.442-.374 2.883-.706v13.09q-1.441.332-2.883.705a150.574 150.574 0 00-25.628 9.487q-1.42.661-2.838 1.347v-79.541q1.42-.685 2.838-1.347a150.571 150.571 0 0125.628-9.486z"/><path data-name="Path 74" d="M533.079 6620.049q1.053 1.013 2.105 1.98l.641 2.6q2.288 11.842 4.577 23.471 2.266-7.93 4.531-16.062l.64-1.554q1.053.749 2.105 1.456a86.366 86.366 0 007.734 4.638q1.922 1.018 3.844 1.905-.549 1.577-1.1 3.144-5.584 15.758-11.167 30.4l-.046.106v38.81q-1.441-.988-2.883-2.056-3.684-2.728-7.368-5.993-1.441-1.28-2.883-2.644v-38.816q-5.584-23.8-11.167-48.929-.572-2.51-1.144-5.035 1.923 2.334 3.845 4.5 3.868 4.364 7.736 8.079z"/><path data-name="Path 75" d="M591.847 6650.34a16.116 16.116 0 015.171 12.143v44.255a17.958 17.958 0 01-5.171 12.754 13.946 13.946 0 01-12.449 4.475c-4.911-.7-9.062-3.534-12.448-8.109a24.052 24.052 0 01-5.171-14.392v-44.255c0-4.9 1.723-8.253 5.171-10.506 3.417-2.34 7.567-2.975 12.448-2.279a21.53 21.53 0 0112.449 5.914zm-15.652 8.018a3.566 3.566 0 00-1.327 2.937v44.255a5.3 5.3 0 001.327 3.468 5.15 5.15 0 003.2 1.858 3.887 3.887 0 003.158-.949 3.985 3.985 0 001.328-3.087v-44.253a4.772 4.772 0 00-1.328-3.321 5.147 5.147 0 00-3.158-1.705 3.969 3.969 0 00-3.2.796z"/><path data-name="Path 76" d="M636.61 6695.177c0 4.844-1.723 9.812-5.171 14.72s-7.6 8.254-12.448 9.814c-4.912 1.576-9.062.86-12.448-1.914-3.447-2.772-5.172-6.726-5.172-11.566v-61.919q1.419-.2 2.838-.448 3.707-.643 7.414-1.579 1.42-.357 2.838-.752v61.921a3.242 3.242 0 001.327 2.825 3.528 3.528 0 003.2.346 6.352 6.352 0 003.158-2.384 6.13 6.13 0 001.327-3.674v-61.924q1.441-.518 2.883-1.071 3.684-1.411 7.368-3.027 1.441-.631 2.883-1.289v61.921z"/><path data-name="Path 77" d="M643.985 6709.262q-1.419.71-2.838 1.4v-79.542q1.42-.688 2.838-1.4 3.707-1.856 7.414-3.852 2.288-1.229 4.577-2.5c5.37-2.989 9.963-3.783 13.776-2.235s5.721 4.976 5.721 10.348v11.9c0 4.941-1.648 10.243-4.943 15.871 3.295 1.726 4.943 5.027 4.943 9.942v15.011q-.184 4.915 1.19 6.6a876.32 876.32 0 01-13.09 7.779 4.748 4.748 0 01-1.006-2.8q-.184-1.907-.229-3.8v-15.017c0-1.77-.626-2.9-1.876-3.407-1.251-.536-2.746-.314-4.485.653q-.869.483-1.739.961v28.695q-1.42.779-2.838 1.542-3.708 1.99-7.415 3.851zm10.253-47.178q.869-.478 1.739-.961a12.668 12.668 0 004.485-4.406 10.472 10.472 0 001.876-5.563v-11.9c0-1.77-.626-2.9-1.876-3.407-1.251-.536-2.746-.314-4.485.653q-.869.484-1.739.961z"/><path data-name="Path 78" d="M713.549 6669.087c-4.3 2.331-8.6 4.78-12.906 7.3q-1.419.831-2.837 1.67v-79.544q1.419-.84 2.837-1.67c4.3-2.517 8.6-4.966 12.906-7.3 5.339-2.894 9.916-3.278 13.73-1.255 3.814 2 5.72 5.8 5.72 11.192v7.368a25.534 25.534 0 01-1.876 9.2 37.073 37.073 0 01-3.067 5.927 11.425 11.425 0 013.067 3.18 14.406 14.406 0 011.876 7.506v7.414c0 5.408-1.908 10.774-5.72 16.313a39.049 39.049 0 01-13.73 12.699zm0-46.314a12.531 12.531 0 004.485-4.262 9.983 9.983 0 001.877-5.454v-7.368a3.521 3.521 0 00-1.877-3.516c-1.251-.6-2.745-.434-4.485.508q-1.327.719-2.654 1.452v20.091q1.331-.732 2.654-1.451zm4.485 28.965a9.984 9.984 0 001.877-5.454v-7.414a3.521 3.521 0 00-1.877-3.516c-1.251-.6-2.745-.434-4.485.509q-1.327.719-2.654 1.453v20.137q1.327-.733 2.654-1.452a12.529 12.529 0 004.485-4.263z"/><path data-name="Path 79" d="M772.362 6631.716a18.538 18.538 0 01-5.171 12.868 24.067 24.067 0 01-12.448 7.433c-4.913 1.22-9.062.869-12.448-1.358-3.448-2.192-5.172-5.612-5.172-10.471v-61.923q1.419-.57 2.838-1.111 3.706-1.41 7.413-2.592 1.42-.451 2.838-.865v61.921a3.254 3.254 0 001.327 2.825 3.8 3.8 0 003.2.483 5.851 5.851 0 003.158-2.058 5.359 5.359 0 001.327-3.48v-61.92q1.441-.29 2.883-.535 3.684-.626 7.368-.944 1.441-.122 2.883-.194v61.921z"/><path data-name="Path 80" d="M777.174 6582.839q-1.441-.017-2.883.019v-13.14q1.441-.036 2.883-.019a72.732 72.732 0 0111.075.973 70.594 70.594 0 017.368 1.634 73.459 73.459 0 0111.076 4.079q1.419.654 2.838 1.379v13.134q-1.419-.725-2.838-1.379a74.227 74.227 0 00-8.192-3.211v66.41q-1.441-.468-2.883-.868a70.59 70.59 0 00-7.368-1.634q-1.441-.239-2.883-.419v-66.405a73.6 73.6 0 00-8.193-.553z"/><path data-name="Path 81" d="M812.143 6592.299q-1.441-.8-2.883-1.533v-13.134q1.442.73 2.883 1.533a91.6 91.6 0 0111.075 7.31q3.684 2.821 7.368 6.182a138.423 138.423 0 0111.075 11.414q1.42 1.632 2.838 3.354v13.134q-1.419-1.722-2.838-3.355-4.1-4.712-8.192-8.693v66.406q-1.442-1.4-2.883-2.72-3.684-3.366-7.368-6.182-1.441-1.1-2.883-2.127v-66.405a89.2 89.2 0 00-8.192-5.184z"/></g></g></g></g></svg>