<svg xmlns="http://www.w3.org/2000/svg" width="35" height="35" viewBox="0 0 35 35">
  <g id="Group_67" data-name="Group 67" transform="translate(-1303 -334)">
    <circle id="Ellipse_6" data-name="Ellipse 6" cx="17.5" cy="17.5" r="17.5" transform="translate(1303 334)" fill="#ff19a9"/>
    <g id="MGvIav" transform="translate(1164.091 174.459)">
      <g id="Group_20" data-name="Group 20" transform="translate(151.584 173.041)">
        <path id="Path_46" data-name="Path 46" d="M151.587,178.276c0-.835,0-1.669,0-2.5a2.647,2.647,0,0,1,2.706-2.731h5.034a2.616,2.616,0,0,1,2.182,1.045,2.427,2.427,0,0,1,.529,1.5c.008,1.812.03,3.624-.007,5.435a2.558,2.558,0,0,1-2.075,2.42,2.456,2.456,0,0,1-.489.056c-1.79,0-3.579.01-5.369,0a2.578,2.578,0,0,1-2.436-2.054,9.346,9.346,0,0,1-.073-1.371C151.579,179.472,151.587,178.874,151.587,178.276Zm5.228,3.33a3.334,3.334,0,1,0-3.332-3.308A3.324,3.324,0,0,0,156.815,181.605Zm3.579-7.616a.717.717,0,1,0,.712.713A.719.719,0,0,0,160.394,173.989Z" transform="translate(-151.584 -173.041)"/>
        <path id="Path_47" data-name="Path 47" d="M263.309,282.2a2.366,2.366,0,1,1-2.377-2.373A2.367,2.367,0,0,1,263.309,282.2Z" transform="translate(-255.711 -276.966)"/>
      </g>
    </g>
  </g>
</svg>
