<svg xmlns="http://www.w3.org/2000/svg" width="37.76" height="73.658" viewBox="0 0 37.76 73.658">
  <g id="logo" transform="translate(-593.845 -230.905)">
    <g id="Group_1" data-name="Group 1" transform="translate(600.963 256.334)">
      <path id="Path_2" data-name="Path 2" d="M237.466,163.343a3.444,3.444,0,0,0,.736-3.632l-9.882-22.362c-.505-1.142-.939-2.07-.964-2.062s-.835.663-1.8,1.457l-2.012,1.654a3.155,3.155,0,0,0-.827,3.515l10.2,22.839a1.492,1.492,0,0,0,2.559.5Z" transform="translate(-216.341 -127.184)" fill="#fff"/>
      <path id="Path_4" data-name="Path 4" d="M244.108,131.706a1.883,1.883,0,0,0-.135-2.946l-3.892-3.029a2.989,2.989,0,0,0-3.548.042l-7.43,6.076c-.967.79-2.54,2.093-3.5,2.895l-1.192,1a4.752,4.752,0,0,0-1.74,2.857c0,.769.774.732,1.721-.082l6.569-5.652a2.808,2.808,0,0,1,3.476-.041l2.763,2.266a2.667,2.667,0,0,0,3.411-.112Z" transform="translate(-216.378 -125.169)" fill="#fff"/>
      <path id="Path_5" data-name="Path 5" d="M215.457,175.377a1.882,1.882,0,0,0,.135,2.945l3.892,3.029a2.987,2.987,0,0,0,3.548-.042l7.43-6.075c.967-.79,2.54-2.093,3.5-2.9l1.192-1a4.748,4.748,0,0,0,1.74-2.857c0-.769-.774-.732-1.721.082l-6.569,5.652a2.808,2.808,0,0,1-3.476.041l-2.763-2.266a2.667,2.667,0,0,0-3.411.112Z" transform="translate(-214.812 -133.686)" fill="#fff"/>
      <circle id="Ellipse_1" data-name="Ellipse 1" cx="2.779" cy="2.779" r="2.779" transform="translate(25.085 23.072)" fill="#fff"/>
    </g>
    <g id="Group_2" data-name="Group 2" transform="translate(593.845 230.905)">
      <path id="Path_1" data-name="Path 1" d="M205.924,155.281a5.711,5.711,0,0,0,1.71,3.764l2.688,2.35c.94.822,1.723.472,1.741-.776l.77-54.413c.018-1.248-.809-1.69-1.836-.98l-3.2,2.21a4.856,4.856,0,0,0-1.869,3.559Z" transform="translate(-205.924 -95.699)" fill="#fff"/>
      <path id="Path_3" data-name="Path 3" d="M211.19,102.99c.956-.8,2.531-2.105,3.5-2.9l7.43-6.075a2.988,2.988,0,0,1,3.549-.042l3.891,3.029a5.261,5.261,0,0,1,1.791,3.664v12.24a5.612,5.612,0,0,1-1.727,3.743l-11.761,10.03a3.225,3.225,0,0,1-3.628.231l-4.074-2.662a1.611,1.611,0,0,1-.175-2.716l3.488-2.98a2.908,2.908,0,0,1,3.516-.078l2.159,1.683a3.459,3.459,0,0,0,3.705.178l.039-.026a4.5,4.5,0,0,0,1.874-3.488l-.183-9.779a5.6,5.6,0,0,0-1.8-3.709l-2.763-2.266a2.808,2.808,0,0,0-3.476.041l-6.569,5.652c-.946.814-1.72.851-1.72.082A4.748,4.748,0,0,1,210,103.989Z" transform="translate(-206.389 -93.414)" fill="#fff"/>
    </g>
  </g>
</svg>
