<svg xmlns="http://www.w3.org/2000/svg" width="70.642" height="137.799" viewBox="0 0 70.642 137.799">
  <g id="logo" transform="translate(-593.845 -230.905)">
    <g id="Group_1" data-name="Group 1" transform="translate(607.161 278.479)">
      <path id="Path_2" data-name="Path 2" d="M250.508,187.774a6.443,6.443,0,0,0,1.377-6.794L233.4,139.145c-.945-2.136-1.756-3.873-1.8-3.858s-1.563,1.241-3.366,2.725l-3.763,3.1a5.9,5.9,0,0,0-1.548,6.575L242,190.411a2.791,2.791,0,0,0,4.788.929Z" transform="translate(-210.987 -120.128)" fill="#161615"/>
      <path id="Path_4" data-name="Path 4" d="M262.773,137.4a3.523,3.523,0,0,0-.252-5.512l-7.281-5.666a5.593,5.593,0,0,0-6.638.079l-13.9,11.367c-1.808,1.479-4.752,3.915-6.542,5.416l-2.229,1.868c-1.79,1.5-3.256,3.906-3.256,5.344s1.449,1.369,3.22-.154l12.289-10.574a5.253,5.253,0,0,1,6.5-.076l5.169,4.24a4.99,4.99,0,0,0,6.382-.21Z" transform="translate(-210.895 -125.169)" fill="#161615"/>
      <path id="Path_5" data-name="Path 5" d="M216.02,181.862a3.522,3.522,0,0,0,.252,5.51l7.281,5.666a5.588,5.588,0,0,0,6.638-.079l13.9-11.365c1.808-1.479,4.752-3.916,6.543-5.417l2.229-1.868c1.79-1.5,3.256-3.9,3.256-5.344s-1.449-1.369-3.22.154l-12.289,10.574a5.253,5.253,0,0,1-6.5.076l-5.169-4.24a4.99,4.99,0,0,0-6.382.21Z" transform="translate(-214.812 -103.866)" fill="#161615"/>
      <circle id="Ellipse_1" data-name="Ellipse 1" cx="5.198" cy="5.198" r="5.198" transform="translate(46.93 43.163)" fill="#161615"/>
    </g>
    <g id="Group_2" data-name="Group 2" transform="translate(593.845 230.905)">
      <path id="Path_1" data-name="Path 1" d="M205.924,199.164a10.684,10.684,0,0,0,3.2,7.041l5.028,4.4c1.759,1.537,3.224.884,3.257-1.452l1.441-101.8c.033-2.336-1.513-3.161-3.435-1.834l-5.993,4.135a9.085,9.085,0,0,0-3.5,6.658Z" transform="translate(-205.924 -87.698)" fill="#161615"/>
      <path id="Path_3" data-name="Path 3" d="M213.743,111.329c1.789-1.5,4.734-3.939,6.541-5.417l13.9-11.365a5.59,5.59,0,0,1,6.64-.079l7.28,5.666a9.842,9.842,0,0,1,3.351,6.854v22.9a10.5,10.5,0,0,1-3.232,7l-22,18.765a6.033,6.033,0,0,1-6.787.431l-7.621-4.98a3.013,3.013,0,0,1-.327-5.082l6.526-5.575a5.44,5.44,0,0,1,6.578-.147l4.039,3.149a6.471,6.471,0,0,0,6.932.333l.073-.048a8.422,8.422,0,0,0,3.506-6.525l-.342-18.294a10.485,10.485,0,0,0-3.363-6.94l-5.169-4.24a5.253,5.253,0,0,0-6.5.076l-12.289,10.574c-1.769,1.524-3.218,1.593-3.218.154s1.464-3.844,3.254-5.344Z" transform="translate(-204.761 -93.414)" fill="#161615"/>
    </g>
  </g>
</svg>
