<svg xmlns="http://www.w3.org/2000/svg" width="25.493" height="17.32" viewBox="0 0 25.493 17.32">
  <g id="F9oLhP" transform="translate(-1055.796 -1100.52)">
    <g id="Group_56" data-name="Group 56" transform="translate(1055.796 1100.52)">
      <path id="Path_114" data-name="Path 114" d="M1079.79,1100.6a5.618,5.618,0,0,1,.67-.079q7.246-.007,14.492,0,3.517,0,7.034,0c.241,0,.482.048.793.082-.521.493-.979.928-1.439,1.361l-4.231,3.986c-1.358,1.28-2.711,2.566-4.075,3.839a2.606,2.606,0,0,1-3.644-.075q-3.106-2.944-6.23-5.868l-3.192-3.006c-.063-.059-.13-.114-.2-.171Z" transform="translate(-1078.505 -1100.52)" fill="#2ce578"/>
      <path id="Path_115" data-name="Path 115" d="M1087.494,1299.432a4.117,4.117,0,0,0,5.3,0l8.876,6.619v.082a7.114,7.114,0,0,1-.778.089c-1.208.01-2.415.005-3.623.005q-8.9,0-17.8,0c-.285,0-.569-.05-.854-.077l-.014-.085Z" transform="translate(-1077.397 -1288.91)" fill="#2ce578"/>
      <path id="Path_116" data-name="Path 116" d="M1055.927,1121.936l9.129,8.6-9.026,6.728a4.95,4.95,0,0,1-.224-1.008q-.02-6.771,0-13.541A5.287,5.287,0,0,1,1055.927,1121.936Z" transform="translate(-1055.796 -1120.803)" fill="#2ce578"/>
      <path id="Path_117" data-name="Path 117" d="M1371.61,1137.095l-8.973-6.688,9.136-8.606a7.667,7.667,0,0,1,.118.919c.007,4.363,0,8.726.008,13.089A2.559,2.559,0,0,1,1371.61,1137.095Z" transform="translate(-1346.406 -1120.675)" fill="#2ce578"/>
    </g>
  </g>
</svg>
