<svg xmlns="http://www.w3.org/2000/svg" width="24" height="24" viewBox="0 0 24 24">
  <g id="Group_63" data-name="Group 63" transform="translate(-1295.949 -35)">
    <g id="Group_61" data-name="Group 61">
      <path id="Path_118" data-name="Path 118" d="M12,0a12.118,12.118,0,0,1,9.974,5.325A11.711,11.711,0,0,1,24,12,12,12,0,1,1,12,0Z" transform="translate(1295.949 35)" fill="#2ce578"/>
    </g>
    <g id="sound-frecuency" transform="translate(1299.976 41.038)">
      <path id="Path_22" data-name="Path 22" d="M.4,138.428a.4.4,0,0,0-.4.4v1.314a.4.4,0,1,0,.795,0v-1.314A.4.4,0,0,0,.4,138.428Z" transform="translate(0 -133.299)" fill="#161615"/>
      <path id="Path_23" data-name="Path 23" d="M27.67,138.428a.4.4,0,0,0-.4.4v1.314a.4.4,0,1,0,.795,0v-1.314A.4.4,0,0,0,27.67,138.428Z" transform="translate(-25.725 -133.299)" fill="#161615"/>
      <path id="Path_24" data-name="Path 24" d="M54.943,128.635a.4.4,0,0,0-.4.4v2.426a.4.4,0,1,0,.795,0v-2.426A.4.4,0,0,0,54.943,128.635Z" transform="translate(-51.45 -124.061)" fill="#161615"/>
      <path id="Path_25" data-name="Path 25" d="M82.215,117.063a.4.4,0,0,0-.4.4v3.74a.4.4,0,0,0,.795,0v-3.74A.4.4,0,0,0,82.215,117.063Z" transform="translate(-77.173 -113.146)" fill="#161615"/>
      <path id="Path_26" data-name="Path 26" d="M109.489,96.588a.4.4,0,0,0-.4.4v6.064a.4.4,0,1,0,.795,0V96.985A.4.4,0,0,0,109.489,96.588Z" transform="translate(-102.899 -93.834)" fill="#161615"/>
      <path id="Path_27" data-name="Path 27" d="M136.761,48.071a.4.4,0,0,0-.4.4V60.041a.4.4,0,0,0,.795,0V48.468A.4.4,0,0,0,136.761,48.071Z" transform="translate(-128.623 -48.071)" fill="#161615"/>
      <path id="Path_28" data-name="Path 28" d="M164.034,65.43a.4.4,0,0,0-.4.4v9.6a.4.4,0,1,0,.795,0v-9.6A.4.4,0,0,0,164.034,65.43Z" transform="translate(-154.348 -64.445)" fill="#161615"/>
      <path id="Path_29" data-name="Path 29" d="M191.306,100.148a.4.4,0,0,0-.4.4v5.66a.4.4,0,0,0,.795,0v-5.66A.4.4,0,0,0,191.306,100.148Z" transform="translate(-180.071 -97.192)" fill="#161615"/>
      <path id="Path_30" data-name="Path 30" d="M218.58,121.067a.4.4,0,0,0-.4.4v3.285a.4.4,0,1,0,.795,0v-3.285A.4.4,0,0,0,218.58,121.067Z" transform="translate(-205.797 -116.923)" fill="#161615"/>
      <path id="Path_31" data-name="Path 31" d="M245.853,129.971a.4.4,0,0,0-.4.4v2.274a.4.4,0,0,0,.795,0v-2.274A.4.4,0,0,0,245.853,129.971Z" transform="translate(-231.522 -125.322)" fill="#161615"/>
      <path id="Path_32" data-name="Path 32" d="M273.125,138.428a.4.4,0,0,0-.4.4v1.314a.4.4,0,1,0,.795,0v-1.314A.4.4,0,0,0,273.125,138.428Z" transform="translate(-257.246 -133.299)" fill="#161615"/>
      <path id="Path_33" data-name="Path 33" d="M300.4,138.428a.4.4,0,0,0-.4.4v1.314a.4.4,0,1,0,.795,0v-1.314A.4.4,0,0,0,300.4,138.428Z" transform="translate(-282.969 -133.299)" fill="#161615"/>
    </g>
  </g>
</svg>
