<svg xmlns="http://www.w3.org/2000/svg" width="795.53" height="669.05" viewBox="0 0 795.53 669.05">
  <g id="Group_31" data-name="Group 31" transform="translate(687.226 -314.194)">
    <g id="Group_30" data-name="Group 30" transform="translate(-687.226 314.194)">
      <path id="Path_49" data-name="Path 49" d="M-541.773,664.506c-12.55,1.441-23.038-3.063-31.461-12.554-8.26-9.517-12.391-21.327-12.39-34.493V595.107q3.766.511,7.532.846a172,172,0,0,0,19.558.614q3.824-.1,7.652-.352v22.352c0,4.048.932,7.11,2.794,9.146a7.225,7.225,0,0,0,6.315,2.05,5.628,5.628,0,0,0,4.5-2.634q1.827-3.169,1.824-10.221v-23.2q0-7.532-1.942-9.928a22.6,22.6,0,0,0-4.377-3.76c-1.7-1.141-3.2-2.146-4.492-3-12.311-7.062-21.787-15.218-28.428-23.2-7.288-8.869-10.93-17.3-10.931-24.559V499.989c0-13.316,4.127-23.7,12.39-32.077,8.343-8.574,18.829-13.085,31.461-14.535,12.314-1.431,22.273.771,29.887,7.726,7.452,6.8,11.173,16.742,11.173,30.369V513.7q-3.764,1.153-7.53,2.189-9.84,2.7-19.68,4.529-3.764.693-7.53,1.248V499.439q0-6.926-1.824-9.7c-.809-1.267-2.309-1.749-4.5-1.5a8.8,8.8,0,0,0-6.315,3.295c-1.861,2.419-2.794,5.592-2.794,9.561v23.446c.08,3.637,1.215,6.444,3.4,8.366a52.655,52.655,0,0,0,14.093,9.1c10.449,5.063,18.38,9.989,23.808,15.673a30.359,30.359,0,0,1,8.867,21.865v29.4c0,13.745-3.723,26.114-11.173,36.565C-519.5,656.369-529.461,663.073-541.773,664.506Z" transform="translate(731.052 -254.336)" fill="#161615"/>
      <path id="Path_50" data-name="Path 50" d="M-490.934,446.365q3.766-1.692,7.532-3.472v88.193q8.867-4.189,17.736-8.827V434.064q3.826-2,7.653-4.066,9.78-5.288,19.558-11,3.826-2.226,7.652-4.509V625.619q-3.826,2.28-7.652,4.509-9.778,5.7-19.558,11-3.826,2.07-7.653,4.066V557q-8.869,4.627-17.736,8.829v88.193q-3.766,1.78-7.532,3.472-9.84,4.419-19.678,8.189-3.768,1.439-7.533,2.77V457.323q3.766-1.331,7.533-2.77Q-500.772,450.8-490.934,446.365Z" transform="translate(760.16 -270.931)" fill="#161615"/>
      <path id="Path_51" data-name="Path 51" d="M-406.029,576.44q-2.611,14.881-5.223,29.756-.608,3.551-1.215,7.105-3.706,2.4-7.412,4.786-11.358,7.306-22.714,14.377-5.224,3.24-10.448,6.405.91-4.983,1.819-9.972,19.377-109.758,38.754-220.408l1.215-7.105q3.706-2.4,7.409-4.819,12.33-8.036,24.661-16.113,3.706-2.417,7.41-4.826.608,2.763,1.214,5.528,19.377,85.394,38.752,171.4.913,3.875,1.822,7.755-5.224,3.18-10.446,6.437-11.36,7.077-22.717,14.425-3.706,2.39-7.412,4.795-.608-2.763-1.214-5.528-2.613-11.484-5.224-22.96C-386.674,563.786-396.351,570.14-406.029,576.44Zm14.455-99.575q-4.069,31.087-8.137,62.171,8.2-5.355,16.4-10.722Q-387.443,502.588-391.573,476.866Zm-7.045,57.447q3.523-20.279,7.045-40.562Q-395.095,514.032-398.619,534.313Z" transform="translate(788.243 -287.695)" fill="#161615"/>
      <path id="Path_52" data-name="Path 52" d="M-335.35,352.992q3.768-2.05,7.535-4.032,0,3.826,0,7.653,0,23.506,0,47.011,11.9-31.4,23.808-62.039.973-2.634,1.945-5.26,2.43-1.1,4.858-2.161,10.63-4.644,21.258-8.508,5.952-2.153,11.9-4.028-2.488,6.188-4.978,12.427c-14.092,34.762-28.183,70.709-42.275,107.529,14.132,26.41,28.263,53.7,42.4,82.18q2.188,4.554,4.376,9.145-5.711,1.808-11.421,3.876-10.628,3.843-21.258,8.508-2.491,1.089-4.981,2.217-.973-1.868-1.942-3.73-11.843-22.623-23.687-44.431,0,26.544,0,53.086,0,3.828,0,7.654-3.768,1.982-7.535,4.032-9.84,5.353-19.678,11.127-3.766,2.205-7.532,4.459V368.578q3.766-2.254,7.532-4.459Q-345.188,358.361-335.35,352.992Z" transform="translate(827.272 -310.987)" fill="#161615"/>
      <path id="Path_53" data-name="Path 53" d="M-212.39,315.325q3.828.447,7.655,1.076v34.863q-3.828-.631-7.655-1.076a176.784,176.784,0,0,0-40.816.106v53.329a185.1,185.1,0,0,1,21.258-1.237q3.766,0,7.53.167V437.3q-3.766-.165-7.53-.167a185.4,185.4,0,0,0-21.258,1.237v53.451a176.787,176.787,0,0,1,40.816-.106q3.828.447,7.655,1.076V527.53q-3.828-.631-7.655-1.076c-22.676-2.647-45.351-.524-68.026,5.066q-3.766.93-7.533,1.984V322.374q3.766-1.054,7.533-1.984C-257.741,314.8-235.066,312.678-212.39,315.325Z" transform="translate(859.455 -314.194)" fill="#161615"/>
      <path id="Path_54" data-name="Path 54" d="M-679.574,608.742q-3.826-4.719-7.652-9.723V564.155q3.826,5,7.652,9.722a350.042,350.042,0,0,0,29.4,32.184q9.78,9.385,19.558,17.087a215.228,215.228,0,0,0,29.4,19.654q3.768,2.076,7.535,3.936V681.6q-3.766-1.859-7.535-3.936a208.526,208.526,0,0,1-21.744-13.858V840.071q-3.826-2.774-7.652-5.794-9.78-7.719-19.558-17.088-3.828-3.673-7.655-7.61V633.315Q-668.7,622.129-679.574,608.742Z" transform="translate(687.226 -206.372)" fill="#161615"/>
      <path id="Path_55" data-name="Path 55" d="M-590.329,633.414q3.766.962,7.532,1.735v88.193a164.021,164.021,0,0,0,17.736,2.642V637.791q3.828.359,7.655.54a176.88,176.88,0,0,0,19.558-.163q3.826-.24,7.652-.638V848.658q-3.826.4-7.652.638a176.9,176.9,0,0,1-19.558.163q-3.828-.183-7.655-.54V760.725a164.046,164.046,0,0,1-17.736-2.641v88.193q-3.766-.775-7.532-1.736a166.8,166.8,0,0,1-19.677-6.358q-3.768-1.479-7.535-3.163V623.891q3.766,1.685,7.535,3.163A167.069,167.069,0,0,0-590.329,633.414Z" transform="translate(717.285 -180.605)" fill="#161615"/>
      <path id="Path_56" data-name="Path 56" d="M-505.424,807.577q-2.611,14.08-5.222,28.109-.608,3.356-1.217,6.709-3.706,1.183-7.41,2.253c-7.572,2.186-15.144,4-22.716,5.409q-5.224.968-10.446,1.669.908-4.556,1.819-9.119,19.377-100.743,38.753-205.024.607-3.354,1.217-6.709,3.7-1.2,7.409-2.512c8.219-2.907,16.439-6.206,24.659-9.833q3.706-1.636,7.411-3.358.606,2.877,1.212,5.75,19.377,88.9,38.754,175.754.91,3.916,1.822,7.829-5.224,2.984-10.447,5.851-11.358,6.231-22.717,11.824-3.706,1.816-7.412,3.553-.606-2.873-1.212-5.75-2.613-11.968-5.224-23.977C-486.069,800.346-495.747,804.236-505.424,807.577Zm14.457-95.523q-4.069,30.05-8.139,59.979,8.2-3.029,16.4-6.544Q-486.836,738.83-490.967,712.054Zm-7.045,55.565q3.523-19.3,7.045-38.68Q-494.491,748.323-498.013,767.619Z" transform="translate(745.369 -184.367)" fill="#161615"/>
      <path id="Path_57" data-name="Path 57" d="M-459.137,648.315q-3.828,2.239-7.655,4.423V617.875q3.826-2.184,7.655-4.423c9.8-5.733,19.6-11.733,29.4-17.893q9.778-6.147,19.558-12.48c9.8-6.329,19.6-12.752,29.4-19.159q3.766-2.463,7.532-4.921v34.863q-3.766,2.458-7.532,4.921-10.873,7.109-21.745,14.2V789.246q-3.826,2.488-7.654,4.961-9.78,6.317-19.558,12.48-3.826,2.4-7.652,4.776V635.2Q-448.266,641.934-459.137,648.315Z" transform="translate(782.311 -208.596)" fill="#161615"/>
      <path id="Path_58" data-name="Path 58" d="M-298.994,690.909q-2.611,14.276-5.223,28.6l-1.215,6.85q-3.7,1.632-7.409,3.352-11.36,5.269-22.717,11.283-5.224,2.754-10.447,5.641.913-4.936,1.822-9.871,19.375-108.59,38.751-215.218.608-3.425,1.215-6.849,3.706-1.619,7.412-3.145c8.22-3.382,16.44-6.414,24.661-9.032q3.7-1.179,7.407-2.246.61,2.984,1.217,5.97,19.375,92.5,38.75,188.469.912,4.343,1.824,8.7-5.224.457-10.447,1.2a222.581,222.581,0,0,0-22.717,4.472q-3.706.925-7.409,1.972-.608-2.987-1.217-5.97-2.611-12.429-5.222-24.8C-279.637,683.277-289.316,686.854-298.994,690.909Zm14.455-95.825q-4.069,29.921-8.137,59.962,8.2-3.255,16.4-6.012Q-280.408,621.992-284.538,595.084Zm-7.044,55.521q3.521-19.362,7.044-38.635Q-288.06,631.241-291.582,650.6Z" transform="translate(834.413 -233.929)" fill="#161615"/>
      <path id="Path_59" data-name="Path 59" d="M-213.027,707.73c-12.552-2.466-23.039-7.566-31.465-16.615-8.259-9-12.388-19.685-12.39-32.92V635.843q3.766-.238,7.532-.323a172.094,172.094,0,0,1,19.558.67q3.826.354,7.655.886v22.352c0,4.051.929,7.291,2.793,9.768a10.346,10.346,0,0,0,6.318,3.793c2.1.417,3.6.065,4.494-1.111,1.214-1.667,1.821-4.839,1.821-9.537v-23.2c0-5.02-.646-8.58-1.944-10.656a33.547,33.547,0,0,0-4.371-5.239c-1.7-1.673-3.2-3.095-4.5-4.285-12.31-10.233-21.785-18.341-28.425-25.876-7.29-8.293-10.934-15.765-10.934-23.079V540.727c0-13.249,4.131-24.752,12.39-33.65,8.343-9.01,18.832-12.957,31.465-10.475,12.307,2.439,22.268,10.313,29.882,22.28a71.4,71.4,0,0,1,11.177,38.491q0,7.349,0,14.7,0,3.766,0,7.532-3.766-1.827-7.532-3.444a169.456,169.456,0,0,0-19.683-7.067q-3.766-1.091-7.53-1.992V544.872c0-4.616-.608-8.086-1.821-10.386a6.035,6.035,0,0,0-4.494-3.02c-2.753-.544-4.859,0-6.318,1.553-1.862,1.977-2.794,4.974-2.793,8.939V565.4a13.676,13.676,0,0,0,3.4,9.135,133.61,133.61,0,0,0,14.093,13.722,120.057,120.057,0,0,1,23.811,28.754c5.911,10.279,8.87,19.949,8.869,28.431q0,14.7,0,29.4c0,13.8-3.727,22.976-11.177,28.444C-190.758,709.136-200.719,710.171-213.027,707.73Z" transform="translate(872.856 -235.826)" fill="#161615"/>
      <path id="Path_60" data-name="Path 60" d="M-146.907,747.167c-12.55-11.58-23.038-23.756-31.463-38.3-8.26-14.375-12.391-27.576-12.39-40.824V645.687q3.766,2.108,7.532,4.439a221.687,221.687,0,0,1,19.558,13.657q3.826,2.98,7.652,6.209v22.352a26.316,26.316,0,0,0,2.8,11.749,29.155,29.155,0,0,0,6.315,8.332c2.1,1.947,3.606,2.7,4.5,2.179,1.215-.77,1.822-3.491,1.822-8.189v-23.2c0-5.02-.647-9.063-1.942-12.092a88.646,88.646,0,0,0-4.376-8.441c-1.7-2.907-3.2-5.408-4.493-7.523-12.312-19.04-21.785-33.425-28.428-45.277-7.288-13.012-10.933-22.708-10.931-30.033V550.57c0-13.234,4.129-22.223,12.39-25.744,8.342-3.564,18.829-.439,31.463,11.213,12.312,11.386,22.272,27.01,29.885,45.036,7.45,17.727,11.175,33.975,11.173,47.535v22.23q-3.764-4.925-7.53-9.574-9.84-12.146-19.68-22.451-3.764-3.951-7.53-7.641v-22.23a33.208,33.208,0,0,0-1.822-11.733,16.833,16.833,0,0,0-4.5-6.309c-2.754-2.542-4.859-3.5-6.315-2.987-1.864.653-2.8,3-2.8,6.961V598.32a25.272,25.272,0,0,0,3.4,11.548c4.535,8.336,9.232,16.312,14.093,24a316.109,316.109,0,0,1,23.808,47.179c5.914,15.026,8.867,27.159,8.867,35.634v29.4c0,13.811-3.723,19.876-11.173,19.4C-124.635,765.268-134.6,758.554-146.907,747.167Z" transform="translate(901.378 -223.938)" fill="#161615"/>
    </g>
  </g>
</svg>
