<svg xmlns="http://www.w3.org/2000/svg" width="28.464" height="29.103" viewBox="0 0 28.464 29.103">
  <g id="Group_64" data-name="Group 64" transform="translate(-1014.536 -1894.459)">
    <g id="yns4Yw" transform="translate(1101.217 1476.382)">
      <g id="Group_23" data-name="Group 23" transform="translate(-86.68 418.077)">
        <path id="Path_48" data-name="Path 48" d="M-66.839,426.083c-3.234,1.681-6.412,3.353-9.613,4.979a.928.928,0,0,0-.615,1.1,15.209,15.209,0,0,1,.014,1.754l10.166,5.262c1.942-1.789,4.419-2.486,6.894-.547a4.737,4.737,0,0,1,1.26,5.865,4.762,4.762,0,0,1-5.424,2.553c-2.576-.612-3.7-2.392-3.709-5.967l-10.183-5.271c-2.764,2.173-5.37,2.226-7.316.181a4.88,4.88,0,0,1-.133-6.517c1.938-2.19,4.528-2.2,7.466,0,3.234-1.67,6.5-3.331,9.724-5.062.273-.146.418-.765.41-1.16a4.706,4.706,0,0,1,2.339-4.44,4.615,4.615,0,0,1,4.822-.1,4.813,4.813,0,0,1,1.751,6.834,4.821,4.821,0,0,1-6.935,1.3C-66.217,426.633-66.484,426.381-66.839,426.083Z" transform="translate(86.68 -418.077)" fill="#2ce578"/>
      </g>
    </g>
  </g>
</svg>
