<svg xmlns="http://www.w3.org/2000/svg" width="35" height="35" viewBox="0 0 35 35">
  <g id="Group_69" data-name="Group 69" transform="translate(-1303 -379)">
    <circle id="Ellipse_7" data-name="Ellipse 7" cx="17.5" cy="17.5" r="17.5" transform="translate(1303 379)" fill="#ff19a9"/>
    <g id="gHmVdP" transform="translate(983.267 71.692)">
      <g id="Group_18" data-name="Group 18" transform="translate(327.012 319.49)">
        <path id="Path_38" data-name="Path 38" d="M455.082,327.824v-2.388c0-1.534.007-3.069-.006-4.6a.566.566,0,0,1,.25-.507,4.372,4.372,0,0,1,5.4.206,4.173,4.173,0,0,1,1.394,2.6,8.314,8.314,0,0,1,1.2-.08,2.309,2.309,0,0,1,2.084,2.237,2.207,2.207,0,0,1-1.169,2.211,3.026,3.026,0,0,1-1.437.319c-1.472,0-2.944,0-4.416,0q-1.45,0-2.9.006Z" transform="translate(-445.986 -319.49)"/>
        <path id="Path_39" data-name="Path 39" d="M432.021,347.208V340.44l.869.348.329-.429.056.023v1.179c0,1.791,0,3.583,0,5.374,0,.2-.06.286-.272.277C432.689,347.2,432.37,347.208,432.021,347.208Z" transform="translate(-424.568 -338.878)"/>
        <path id="Path_40" data-name="Path 40" d="M412.522,340.365h.842v1.215c0,1.782,0,3.565,0,5.347,0,.237-.066.319-.3.294a5.425,5.425,0,0,0-.547,0Z" transform="translate(-406.453 -338.883)"/>
        <path id="Path_41" data-name="Path 41" d="M391.459,342.385v6.691h-.819c-.006-.063-.016-.121-.016-.179,0-1.952,0-3.9-.007-5.855a.339.339,0,0,1,.218-.371C391.037,342.587,391.233,342.489,391.459,342.385Z" transform="translate(-386.102 -340.76)"/>
        <path id="Path_42" data-name="Path 42" d="M368.508,364.865v-4.1l.114.021.644-1.424.106.032q0,.735,0,1.469c0,1.231,0,2.462.006,3.692,0,.243-.075.336-.318.314C368.887,364.852,368.711,364.865,368.508,364.865Z" transform="translate(-365.563 -356.53)"/>
        <path id="Path_43" data-name="Path 43" d="M347.942,379.357a.755.755,0,0,1-.092.026c-.717.059-.757.021-.757-.687,0-1.116,0-2.233,0-3.349,0-.205.039-.29.266-.315.59-.063.589-.077.589.523q0,1.741,0,3.481Z" transform="translate(-345.663 -371.063)"/>
        <path id="Path_44" data-name="Path 44" d="M327.8,382.564v3.277A2.1,2.1,0,0,1,327.8,382.564Z" transform="translate(-327.012 -378.087)"/>
      </g>
    </g>
  </g>
</svg>
