<svg xmlns="http://www.w3.org/2000/svg" width="747.826" height="626.245" viewBox="0 0 747.826 626.245">
  <g id="Group_3" data-name="Group 3" transform="translate(2180.544 -314.194)">
    <path id="Path_6" data-name="Path 6" d="M-2151.776,417.5q2.614,2.651,5.23,5.17.8,3.268,1.59,6.523,5.689,29.669,11.372,58.732,5.631-19.534,11.257-39.639.8-1.913,1.592-3.834,2.615,1.9,5.23,3.686a189.574,189.574,0,0,0,19.217,11.544q4.775,2.49,9.552,4.614-1.365,3.941-2.729,7.853-13.872,39.352-27.745,75.559l-.112.262q0,44.629,0,89.26,0,3.581,0,7.164-3.584-2.5-7.164-5.223-9.155-6.964-18.308-15.443-3.58-3.324-7.164-6.89V520.412Q-2163.829,460.6-2177.7,397q-1.421-6.359-2.842-12.756,4.775,6.22,9.551,11.968Q-2161.385,407.776-2151.776,417.5Z" transform="translate(0 23.801)" fill="#161615"/>
    <path id="Path_7" data-name="Path 7" d="M-2031.145,466.481c8.567,7.7,12.85,17.144,12.85,29.232V605.667a47.9,47.9,0,0,1-12.85,32.625c-8.567,9.387-18.875,14.107-30.928,13.053-12.2-1.081-22.515-7.7-30.929-18.8-8.567-11.186-12.847-23.4-12.849-35.4V487.192c0-12.175,4.283-20.583,12.849-26.454,8.49-6.092,18.8-8.088,30.929-7.015C-2050.1,454.771-2039.786,458.668-2031.145,466.481Zm-38.888,22.265a9.312,9.312,0,0,0-3.3,7.46V606.159a12.554,12.554,0,0,0,3.3,8.459,11.959,11.959,0,0,0,7.96,4.207,10.072,10.072,0,0,0,7.846-2.8,10.508,10.508,0,0,0,3.3-7.865V498.207a11.185,11.185,0,0,0-3.3-8.055,12.033,12.033,0,0,0-7.846-3.8A10.292,10.292,0,0,0-2070.032,488.745Z" transform="translate(25.381 47.317)" fill="#161615"/>
    <path id="Path_8" data-name="Path 8" d="M-1944.874,578.375c0,12.035-4.283,24.747-12.848,37.7-8.566,12.922-18.875,22.182-30.929,27.12-12.2,4.992-22.514,4.1-30.928-2.1-8.567-6.179-12.848-15.669-12.85-27.694V459.55q3.527-.78,7.051-1.679,9.211-2.347,18.42-5.464,3.525-1.188,7.051-2.479V603.776c0,3.106,1.1,5.365,3.3,6.731,2.273,1.337,4.927,1.4,7.958.162a17.865,17.865,0,0,0,7.847-6.617,16.472,16.472,0,0,0,3.3-9.419V440.787q3.583-1.606,7.164-3.3,9.154-4.317,18.307-9.136,3.581-1.881,7.164-3.826V578.375Z" transform="translate(50.328 37.491)" fill="#161615"/>
    <path id="Path_9" data-name="Path 9" d="M-1900.4,429.97q-3.581,2.333-7.163,4.664V402q3.581-2.329,7.163-4.662c9.172-5.974,18.344-11.951,27.516-17.835q9.154-5.87,18.307-11.591c9.172-5.717,18.344-11.274,27.516-16.579q3.527-2.038,7.051-4.025v32.635q-3.525,1.986-7.051,4.025-10.174,5.884-20.353,12.148V561.1q-3.582,2.2-7.164,4.431-9.153,5.706-18.307,11.591-3.582,2.3-7.162,4.613V416.748Q-1890.227,423.324-1900.4,429.97Z" transform="translate(92.755 11.252)" fill="#161615"/>
    <path id="Path_10" data-name="Path 10" d="M-1750.325,471.951c0,12.081-4.282,23.269-12.849,34.328a75.119,75.119,0,0,1-30.929,23.942c-12.2,5.122-22.514,5.917-30.928,1.692-8.566-4.119-12.851-12-12.85-24.069V354q3.525-1.939,7.051-3.817,9.21-4.9,18.42-9.34,3.525-1.692,7.051-3.307V491.38c0,3.11,1.1,5.253,3.3,6.469,2.275,1.182,4.928,1.123,7.96-.149a18.4,18.4,0,0,0,7.846-6.471,15.655,15.655,0,0,0,3.3-9.223V328.16q3.581-1.351,7.164-2.6,9.154-3.187,18.307-5.657,3.581-.961,7.164-1.8V471.951Z" transform="translate(116.434 1.329)" fill="#161615"/>
    <path id="Path_11" data-name="Path 11" d="M-1757.068,513.6q-3.527.5-7.051,1.127V317.107q3.525-.627,7.051-1.127a181.106,181.106,0,0,1,18.419-1.664q5.685-.217,11.371-.047c13.342.4,24.75,7.136,34.226,19.053,9.475,11.972,14.212,25.339,14.212,38.627v29.563c0,12.322-4.093,21.346-12.281,28.177,8.188,11.438,12.282,23.791,12.281,35.955v37.3c-.3,7.854.682,14.258,2.957,19.3A155.306,155.306,0,0,0-1708.4,513.6a22.142,22.142,0,0,1-2.5-8.773q-.452-5.064-.568-9.854v-37.3a16.737,16.737,0,0,0-4.663-11.686,15.288,15.288,0,0,0-11.143-5.389q-2.16-.066-4.321-.074v71.293q-3.525-.012-7.05.122A181.115,181.115,0,0,0-1757.068,513.6ZM-1731.6,408q2.161.008,4.321.074a15.308,15.308,0,0,0,11.143-3.934,13.563,13.563,0,0,0,4.663-10.6V363.977a16.732,16.732,0,0,0-4.663-11.684,15.29,15.29,0,0,0-11.143-5.39q-2.16-.064-4.321-.074Z" transform="translate(141.497 0)" fill="#161615"/>
    <path id="Path_12" data-name="Path 12" d="M-1692.056,331.719v-7.164q3.525,1.582,7.052,3.36a186.754,186.754,0,0,1,18.875,10.99q2.614,1.73,5.23,3.577.8,3.065,1.592,6.139,13.985,53.343,27.972,110.214V367.3q3.581,3.5,7.162,7.24,9.154,9.57,18.307,20.8,3.584,4.4,7.164,9.065V602.03q-3.582-4.667-7.164-9.065-9.438-11.594-18.874-21.392-2.56-2.661-5.118-5.194-.8-3.233-1.592-6.454-14.044-57.019-28.084-110.38v91.535q-3.525-2.532-7.052-4.85A186.205,186.205,0,0,0-1685,525.538q-3.525-1.779-7.052-3.36V331.719Z" transform="translate(165.984 3.521)" fill="#161615"/>
    <path id="Path_13" data-name="Path 13" d="M-2061.5,646.909a183.143,183.143,0,0,0,31.5-3.1c13.8,39.84,27.593,78.221,41.389,115.473,13.758-47.483,27.518-96.091,41.276-145.495,10.5-5.363,21-11.19,31.5-17.334V794.071c-10.84,6.344-21.68,12.349-32.521,17.855V722.78q-14.5,51.938-28.994,102.572c-7.543,3.123-15.086,5.935-22.628,8.384q-14.5-39.868-29-81.646v89.147a183.738,183.738,0,0,1-32.521,3.294Z" transform="translate(40.451 95.907)" fill="#161615"/>
    <path id="Path_14" data-name="Path 14" d="M-1874.148,559.231q3.581-2.325,7.164-4.638v32.633q-3.583,2.313-7.164,4.638c-12.734,8.266-25.469,16.619-38.205,24.8v49.918q9.95-6.389,19.9-12.882,3.525-2.293,7.05-4.59v32.52q-3.525,2.3-7.05,4.59-9.95,6.475-19.9,12.882v50.032c12.736-8.177,25.471-16.529,38.205-24.794q3.581-2.325,7.164-4.64v32.519q-3.583,2.315-7.164,4.64c-21.225,13.777-42.45,27.791-63.675,40.839q-3.527,2.169-7.052,4.3V604.369q3.525-2.13,7.052-4.3C-1916.6,587.023-1895.373,573.009-1874.148,559.231Z" transform="translate(80.078 81.685)" fill="#161615"/>
    <path id="Path_15" data-name="Path 15" d="M-1749.042,508.466c8.565,6.845,12.85,16.7,12.85,28.725V647.146c0,12.007-4.285,22.768-12.85,33.132a68.325,68.325,0,0,1-30.928,21.423c-12.205,4.228-22.515,4.384-30.929-.32-8.567-4.6-12.848-12.685-12.848-24.758V566.669c0-12.109,4.281-24.647,12.848-37.1,8.489-12.539,18.8-21.289,30.929-25.491C-1767.993,499.937-1757.685,501.59-1749.042,508.466Zm-38.889,34.423a15.626,15.626,0,0,0-3.3,9.226V662.069c0,3.109,1.1,5.327,3.3,6.695,2.276,1.339,4.928,1.466,7.961.417a17.448,17.448,0,0,0,7.844-5.879,14.579,14.579,0,0,0,3.3-8.966V544.38c0-3.107-1.1-5.441-3.3-6.952s-4.814-1.765-7.844-.717A16.476,16.476,0,0,0-1787.93,542.889Z" transform="translate(121.236 63.757)" fill="#161615"/>
    <path id="Path_16" data-name="Path 16" d="M-1750.326,501.887v-7.164q3.524-.275,7.05-.41a163.782,163.782,0,0,1,18.875.363q2.617.205,5.232.5.794,2.591,1.591,5.189,13.987,44.973,27.972,92.618V501.446q3.581,1.133,7.163,2.46a167.439,167.439,0,0,1,18.307,8.074q3.581,1.839,7.164,3.887V713.49q-3.584-2.048-7.164-3.887a167.219,167.219,0,0,0-18.875-8.283q-2.558-.936-5.117-1.775-.8-2.705-1.593-5.4-14.042-47.76-28.085-92.724v91.534q-3.525-.424-7.05-.689a163.816,163.816,0,0,0-18.421-.328q-3.525.133-7.05.41V501.887Z" transform="translate(146.184 61.162)" fill="#161615"/>
  </g>
</svg>
